HIERARCHY
ROOT hips
{
  OFFSET 0 10.6860622 2.3727825e-15
  CHANNELS 6 Xposition Yposition Zposition Yrotation Xrotation Zrotation
  JOINT leftUpperLeg
  {
    OFFSET 0.6642549969 -0.9402397400000004 0
    CHANNELS 3 Yrotation Xrotation Zrotation
    JOINT leftLowerLeg
    {
      OFFSET 0 -3.997221335632195 0
      CHANNELS 3 Yrotation Xrotation Zrotation
      JOINT leftFoot
      {
        OFFSET -0.13777839790000004 -4.6145792000000005 -0.22186036399999998
        CHANNELS 3 Yrotation Xrotation Zrotation
        JOINT leftToes
        {
          OFFSET -0.03777410834999995 -0.9130806927000008 0.85230013
          CHANNELS 3 Yrotation Xrotation Zrotation
          End Site
          {
            OFFSET -0.03777410834999995 -0.9130806927000008 0.85230013
          }
        }
      }
    }
  }
  JOINT rightUpperLeg
  {
    OFFSET -0.6642778626 -0.9402397400000004 0
    CHANNELS 3 Yrotation Xrotation Zrotation
    JOINT rightLowerLeg
    {
      OFFSET 0 -3.997221452859387 0
      CHANNELS 3 Yrotation Xrotation Zrotation
      JOINT rightFoot
      {
        OFFSET 0.1377926176 -4.6145792000000005 -0.22185782299999995
        CHANNELS 3 Yrotation Xrotation Zrotation
        JOINT rightToes
        {
          OFFSET 0.037780746850000047 -0.9130806927000008 0.85230167
          CHANNELS 3 Yrotation Xrotation Zrotation
          End Site
          {
            OFFSET 0.037780746850000047 -0.9130806927000008 0.85230167
          }
        }
      }
    }
  }
  JOINT spine
  {
    OFFSET 0 0.13988381660000015 0
    CHANNELS 3 Yrotation Xrotation Zrotation
    JOINT chest
    {
      OFFSET 0 0.6191039003973773 0
      CHANNELS 3 Yrotation Xrotation Zrotation
      JOINT upperChest
      {
        OFFSET 0 0.9855186130586943 0
        CHANNELS 3 Yrotation Xrotation Zrotation
        JOINT leftShoulder
        {
          OFFSET 0.1807663869 1.5087829790000005 0
          CHANNELS 3 Yrotation Xrotation Zrotation
          JOINT leftUpperArm
          {
            OFFSET 0.5985063006419806 0 0
            CHANNELS 3 Yrotation Xrotation Zrotation
            JOINT leftLowerArm
            {
              OFFSET 2.2993332369501065 0 0
              CHANNELS 3 Yrotation Xrotation Zrotation
              JOINT leftHand
              {
                OFFSET 2.395047042602395 0 0
                CHANNELS 3 Yrotation Xrotation Zrotation
                JOINT leftIndexProximal
                {
                  OFFSET 0.5766295810000004 0.04556643899499946 0.17265095988184
                  CHANNELS 3 Yrotation Xrotation Zrotation
                  JOINT leftIndexIntermediate
                  {
                    OFFSET 0.2957229000000008 -0.019352197700001517 -0.007932640616999987
                    CHANNELS 3 Yrotation Xrotation Zrotation
                    JOINT leftIndexDistal
                    {
                      OFFSET 0.19008243099999922 -0.012484908149998475 -0.002786250786000012
                      CHANNELS 3 Yrotation Xrotation Zrotation
                      End Site
                      {
                        OFFSET 0.19008243099999922 -0.012484908149998475 -0.002786250786000012
                      }
                    }
                  }
                }
                JOINT leftMiddleProximal
                {
                  OFFSET 0.5834975091000001 0.0524350405149987 0.02204081888183999
                  CHANNELS 3 Yrotation Xrotation Zrotation
                  JOINT leftMiddleIntermediate
                  {
                    OFFSET 0.33880573540000003 -0.019871473270000717 -0.00000971183179999946
                    CHANNELS 3 Yrotation Xrotation Zrotation
                    JOINT leftMiddleDistal
                    {
                      OFFSET 0.20676022730000088 -0.012221336379999448 0.0001471936708000235
                      CHANNELS 3 Yrotation Xrotation Zrotation
                      End Site
                      {
                        OFFSET 0.20676022730000088 -0.012221336379999448 0.0001471936708000235
                      }
                    }
                  }
                }
                JOINT leftLittleProximal
                {
                  OFFSET 0.5344154683999995 -0.012880921405001189 -0.24414037221816004
                  CHANNELS 3 Yrotation Xrotation Zrotation
                  JOINT leftLittleIntermediate
                  {
                    OFFSET 0.21758961730000093 -0.011650919939999227 0.011893592810000034
                    CHANNELS 3 Yrotation Xrotation Zrotation
                    JOINT leftLittleDistal
                    {
                      OFFSET 0.1475273964999999 -0.008152365682999818 0.006001092492999946
                      CHANNELS 3 Yrotation Xrotation Zrotation
                      End Site
                      {
                        OFFSET 0.1475273964999999 -0.008152365682999818 0.006001092492999946
                      }
                    }
                  }
                }
                JOINT leftRingProximal
                {
                  OFFSET 0.5799399463000003 0.026911854694997794 -0.12150566991816003
                  CHANNELS 3 Yrotation Xrotation Zrotation
                  JOINT leftRingIntermediate
                  {
                    OFFSET 0.26167887460000006 -0.013480186499999602 0.010996293000000053
                    CHANNELS 3 Yrotation Xrotation Zrotation
                    JOINT leftRingDistal
                    {
                      OFFSET 0.17667108799999987 -0.008990287899999228 0.0055541023999999065
                      CHANNELS 3 Yrotation Xrotation Zrotation
                      End Site
                      {
                        OFFSET 0.17667108799999987 -0.008990287899999228 0.0055541023999999065
                      }
                    }
                  }
                }
                JOINT leftThumbProximal
                {
                  OFFSET 0.11018806699999972 -0.09448718900500053 0.17047963138184
                  CHANNELS 3 Yrotation Xrotation Zrotation
                  JOINT leftThumbIntermediate
                  {
                    OFFSET 0.31062601459999983 -0.08126270900000132 0.15443142000000007
                    CHANNELS 3 Yrotation Xrotation Zrotation
                    JOINT leftThumbDistal
                    {
                      OFFSET 0.21627175790000086 -0.08833193599999878 0.018771167799999988
                      CHANNELS 3 Yrotation Xrotation Zrotation
                      End Site
                      {
                        OFFSET 0.21627175790000086 -0.08833193599999878 0.018771167799999988
                      }
                    }
                  }
                }
              }
            }
          }
        }
        JOINT neck
        {
          OFFSET 0 1.5463305265074576 0
          CHANNELS 3 Yrotation Xrotation Zrotation
          JOINT head
          {
            OFFSET 0 0.8456443600000344 0
            CHANNELS 3 Yrotation Xrotation Zrotation
            JOINT leftEye
            {
              OFFSET 0.30408573140000006 0.5104519199999995 0.1276382305
              CHANNELS 3 Yrotation Xrotation Zrotation
              End Site
              {
                OFFSET 0.30408573140000006 0.5104519199999995 0.1276382305
              }
            }
            JOINT rightEye
            {
              OFFSET -0.30409491089999996 0.5104519199999995 0.1276379445
              CHANNELS 3 Yrotation Xrotation Zrotation
              End Site
              {
                OFFSET -0.30409491089999996 0.5104519199999995 0.1276379445
              }
            }
            JOINT jaw
            {
              OFFSET -3.155239131000001e-7 -0.11984121820000082 0.60178107
              CHANNELS 3 Yrotation Xrotation Zrotation
              End Site
              {
                OFFSET -3.155239131000001e-7 -0.11984121820000082 0.60178107
              }
            }
          }
        }
        JOINT rightShoulder
        {
          OFFSET -0.1807303465 1.5087829790000005 0
          CHANNELS 3 Yrotation Xrotation Zrotation
          JOINT rightUpperArm
          {
            OFFSET -0.5985063796536958 0 0
            CHANNELS 3 Yrotation Xrotation Zrotation
            JOINT rightLowerArm
            {
              OFFSET -2.2993322059002854 0 0
              CHANNELS 3 Yrotation Xrotation Zrotation
              JOINT rightHand
              {
                OFFSET -2.395045314457259 0 0
                CHANNELS 3 Yrotation Xrotation Zrotation
                JOINT rightIndexProximal
                {
                  OFFSET -0.5764487688300002 0.0441371204405987 0.17361932004999997
                  CHANNELS 3 Yrotation Xrotation Zrotation
                  JOINT rightIndexIntermediate
                  {
                    OFFSET -0.29573011380000047 -0.01934826376999843 -0.007698921482999974
                    CHANNELS 3 Yrotation Xrotation Zrotation
                    JOINT rightIndexDistal
                    {
                      OFFSET -0.19008373999999884 -0.012503266380000655 -0.0026365778999999897
                      CHANNELS 3 Yrotation Xrotation Zrotation
                      End Site
                      {
                        OFFSET -0.19008373999999884 -0.012503266380000655 -0.0026365778999999897
                      }
                    }
                  }
                }
                JOINT rightMiddleProximal
                {
                  OFFSET -0.5834852037300005 0.05211639405060153 0.02307162440000001
                  CHANNELS 3 Yrotation Xrotation Zrotation
                  JOINT rightMiddleIntermediate
                  {
                    OFFSET -0.33880114510000003 -0.019952774050000954 0.0002455003561999819
                    CHANNELS 3 Yrotation Xrotation Zrotation
                    JOINT rightMiddleDistal
                    {
                      OFFSET -0.20675694929999955 -0.012273788999999091 0.00030209124000002766
                      CHANNELS 3 Yrotation Xrotation Zrotation
                      End Site
                      {
                        OFFSET -0.20675694929999955 -0.012273788999999091 0.00030209124000002766
                      }
                    }
                  }
                }
                JOINT rightLittleProximal
                {
                  OFFSET -0.5346811737299992 -0.011214256288399227 -0.24363941305000003
                  CHANNELS 3 Yrotation Xrotation Zrotation
                  JOINT rightLittleIntermediate
                  {
                    OFFSET -0.21757715980000092 -0.011771559690000988 0.01201554387
                    CHANNELS 3 Yrotation Xrotation Zrotation
                    JOINT rightLittleDistal
                    {
                      OFFSET -0.1475201849000004 -0.00822055339600003 0.006082065407000015
                      CHANNELS 3 Yrotation Xrotation Zrotation
                      End Site
                      {
                        OFFSET -0.1475201849000004 -0.00822055339600003 0.006082065407000015
                      }
                    }
                  }
                }
                JOINT rightRingProximal
                {
                  OFFSET -0.5800810755299999 0.027657985680600072 -0.12066365025000003
                  CHANNELS 3 Yrotation Xrotation Zrotation
                  JOINT rightRingIntermediate
                  {
                    OFFSET -0.26166445029999974 -0.013623118409999302 0.011164098990000045
                    CHANNELS 3 Yrotation Xrotation Zrotation
                    JOINT rightRingDistal
                    {
                      OFFSET -0.17666387530000027 -0.009072900100000503 0.005668185599999959
                      CHANNELS 3 Yrotation Xrotation Zrotation
                      End Site
                      {
                        OFFSET -0.17666387530000027 -0.009072900100000503 0.005668185599999959
                      }
                    }
                  }
                }
                JOINT rightThumbProximal
                {
                  OFFSET -0.10997596379000074 -0.09577489355940072 0.16989765924999997
                  CHANNELS 3 Yrotation Xrotation Zrotation
                  JOINT rightThumbIntermediate
                  {
                    OFFSET -0.31036620999999986 -0.08229339117999834 0.15440884469999996
                    CHANNELS 3 Yrotation Xrotation Zrotation
                    JOINT rightThumbDistal
                    {
                      OFFSET -0.21631306399999906 -0.08825326400000111 0.018656797720000014
                      CHANNELS 3 Yrotation Xrotation Zrotation
                      End Site
                      {
                        OFFSET -0.21631306399999906 -0.08825326400000111 0.018656797720000014
                      }
                    }
                  }
                }
              }
            }
          }
        }
      }
    }
  }
}
MOTION
Frames: 6
Frame Time: 0.03333333333333333
0 -6.273272479074373 -7.944944615567048 0 70.99275954114208 0 -66.12258111574704 -72.52083738357416 94.15092090490224 156.72870011382787 66.35904162381694 143.47672541101042 9.349328439081942 33.4811058079775 10.778352927218851 0 0 0 65.99891939032145 -72.53190383135541 -94.06802164022706 -156.73034918250823 66.41164273434606 -143.49618380997808 -9.536000530660935 34.07429972332637 -10.902283908455432 0 0 0 -0.18956315836178692 9.398338631160835 -3.7812094312568707 -2.055796249800941 14.908992557132866 -13.92260673856504 0 0 0 -5.459720771680964 -32.44492456893455 5.878496804868487 -47.77059642542769 -76.97988400532401 -27.816569065758944 -115.62472251540802 59.281808463595375 -22.176892505329697 34.00482670280126 -42.75868467819231 -44.443199145163554 0 0 0 0 0 0 0 0 0 0 0 0 0 0 0 0 0 0 0 0 0 0 0 0 0 0 0 0 0 0 0 0 0 0 0 0 0 0 0 0 0 0 0 0 0 0.2598442334955804 -44.85784957464351 -7.744527380903496 -1.0959605722423051 -6.513428782239262 -17.535517842424344 0 0 0 0 0 0 0 0 0 22.2576334078527 -2.0013230219280747 -2.329549698023505 78.0337521286321 -82.85869499277135 -4.953441370107911 81.9785173811745 62.800324189608816 -32.848846355300715 -29.47081029050494 -23.821608905198733 17.03410017812259 0 0 0 0 0 0 0 0 0 0 0 0 0 0 0 0 0 0 0 0 0 0 0 0 0 0 0 0 0 0 0 0 0 0 0 0 0 0 0 0 0 0 0 0 0
0 -6.268051623148836 -7.933619714215197 0 70.99275954114208 0 -65.68644357718325 -72.5243510696447 93.67876741544794 156.52370235543611 66.46130169420597 143.25099731878728 9.349328439081942 33.4811058079775 10.778352927218851 0 0 0 65.5638870703928 -72.53540829516561 -93.59754015903916 -156.5262996026594 66.51321039634489 -143.27132839755475 -9.536000530660935 34.07429972332637 -10.902283908455432 0 0 0 -0.18947430739901408 9.303125911935936 -3.780941815083625 -2.059780498394363 15.31230864313835 -13.93769467013731 0 0 0 -5.222047839662765 -32.60100600727931 5.751081315942645 -48.760589755501435 -76.83896244382218 -26.965013274605838 -116.12578766894511 59.160767394969106 -22.19038609028424 34.48956009929449 -42.69732220154069 -44.76715597516369 0 0 0 0 0 0 0 0 0 0 0 0 0 0 0 0 0 0 0 0 0 0 0 0 0 0 0 0 0 0 0 0 0 0 0 0 0 0 0 0 0 0 0 0 0 0.2606159001581207 -45.02446653818336 -7.7456440737139465 -1.0953515230547657 -6.2282057248880385 -17.54099705043015 0 0 0 0 0 0 0 0 0 22.190839547917193 -2.1712572825813807 -2.4173420692611427 77.9105179486432 -82.91539912146132 -4.866043804529946 81.76668338453904 62.72965542169593 -32.895636346590294 -29.19659223495921 -23.99299084400842 16.835572608485908 0 0 0 0 0 0 0 0 0 0 0 0 0 0 0 0 0 0 0 0 0 0 0 0 0 0 0 0 0 0 0 0 0 0 0 0 0 0 0 0 0 0 0 0 0
0 -6.273272479074373 -7.944944615567048 0 70.99275954114208 0 -66.12258111574704 -72.52083738357416 94.15092055052041 156.72870516086053 66.35903310745799 143.4767295918295 9.349328439081942 33.4811058079775 10.778352927218851 0 0 0 65.99891939032145 -72.53190383135541 -94.06802164022706 -156.73034918250823 66.41164273434606 -143.49618380997808 -9.536000530660935 34.07429972332637 -10.902283908455432 0 0 0 -0.18956315836178692 9.398337765770972 -3.7812094312568707 -2.055796249800941 14.908992557132866 -13.92260673856504 0 0 0 -5.459720771680964 -32.44492456893455 5.878496804868487 -47.770600742263234 -76.97986884688312 -27.81656180710806 -115.62472257674197 59.281808463595375 -22.176892791285134 34.00482670280126 -42.75868467819231 -44.443199145163554 0 0 0 0 0 0 0 0 0 0 0 0 0 0 0 0 0 0 0 0 0 0 0 0 0 0 0 0 0 0 0 0 0 0 0 0 0 0 0 0 0 0 0 0 0 0.2598442334955804 -44.85784957464351 -7.744528626847589 -1.0959605722423051 -6.513428782239262 -17.535517842424344 0 0 0 0 0 0 0 0 0 22.257631826570083 -2.0013230219280747 -2.329549698023505 78.03373702961918 -82.85869499277135 -4.953429225266573 81.97852160158318 62.800324189608816 -32.84884073348893 -29.47081029050494 -23.821608905198733 17.03410017812259 0 0 0 0 0 0 0 0 0 0 0 0 0 0 0 0 0 0 0 0 0 0 0 0 0 0 0 0 0 0 0 0 0 0 0 0 0 0 0 0 0 0 0 0 0
0 -6.278493334999908 -7.956269516918898 0 70.99275954114208 0 -66.55850759038616 -72.51624446994855 94.62286518971125 156.9318738416466 66.25644192272136 143.7006326473458 9.349328439081942 33.4811058079775 10.778352927218851 0 0 0 66.43374443496576 -72.52731947369449 -94.53829590024466 -156.93257907698992 66.30976326915376 -143.7192286810743 -9.536000530660935 34.07429972332637 -10.902283908455432 0 0 0 -0.18965246551725076 9.493549846283177 -3.7814764449043703 -2.0519290887507218 14.505676060521461 -13.90757562320559 0 0 0 -5.696571669706586 -32.28840196311092 6.00492466502045 -46.7608125133479 -77.11740283907216 -28.68794416730392 -115.12181290813014 59.40278491880397 -22.161272403252177 33.51915368827785 -42.81803146647944 -44.11823492383326 0 0 0 0 0 0 0 0 0 0 0 0 0 0 0 0 0 0 0 0 0 0 0 0 0 0 0 0 0 0 0 0 0 0 0 0 0 0 0 0 0 0 0 0 0 0.2590793889652196 -44.691237766392724 -7.743418848733583 -1.0965975483046473 -6.798651537678775 -17.530030750658046 0 0 0 0 0 0 0 0 0 22.324680456108 -1.8314915790358068 -2.241567636886756 78.15530036064833 -82.8019719224915 -5.039155833265709 82.19099561230581 62.87091582163974 -32.801362396125526 -29.744017253836258 -23.649364360095742 17.231467242955848 0 0 0 0 0 0 0 0 0 0 0 0 0 0 0 0 0 0 0 0 0 0 0 0 0 0 0 0 0 0 0 0 0 0 0 0 0 0 0 0 0 0 0 0 0
0 -6.283714190925444 -7.967594418270748 0 70.99275954114208 0 -66.99416898774902 -72.51057315244937 95.09454533879058 157.1332236292139 66.15353173809123 143.92272582557766 9.349328439081942 33.4811058079775 10.778352927218851 0 0 0 66.86830505887946 -72.52167878652945 -95.00830729876587 -157.13300650695135 66.20756699227655 -143.94047780176518 -9.536000530660935 34.07429972332637 -10.902283908455432 0 0 0 -0.18974226644133776 9.588762416694856 -3.781744178522419 -2.0481781409314994 14.10235771173923 -13.892598766878425 0 0 0 -5.932606538403827 -32.13143931034041 6.130369931712345 -45.73108986139229 -77.25144249690996 -29.57929994863497 -114.61703580498018 59.52368314171017 -22.143503113569995 33.03257210315285 -42.875352164269415 -43.79228748123915 0 0 0 0 0 0 0 0 0 0 0 0 0 0 0 0 0 0 0 0 0 0 0 0 0 0 0 0 0 0 0 0 0 0 0 0 0 0 0 0 0 0 0 0 0 0.2583212322648657 -44.5246248760914 -7.742315953326229 -1.0972623081426294 -7.083874612637319 -17.52453699361327 0 0 0 0 0 0 0 0 0 22.391980906538027 -1.6617632464187666 -2.15339517100175 78.27524564083221 -82.7452302976791 -5.12326226661474 82.40411037000008 62.941422360382624 -32.75319201433332 -30.016215604514173 -23.476259069048172 17.4276797033249 0 0 0 0 0 0 0 0 0 0 0 0 0 0 0 0 0 0 0 0 0 0 0 0 0 0 0 0 0 0 0 0 0 0 0 0 0 0 0 0 0 0 0 0 0
0 -6.288935136315071 -7.978919409086688 0 70.99275954114208 0 -67.42957743689891 -72.5038244469525 95.56597626241292 157.3327935915042 66.05030609803553 144.1430516156044 9.349328439081942 33.4811058079775 10.778352927218851 0 0 0 67.30262227199107 -72.51496002753983 -95.4780780464853 -157.33167978743649 66.10504898048019 -144.15998331414923 -9.536001547157413 34.074303846284614 -10.902283908455432 0 0 0 -0.1898325258237828 9.68398007103266 -3.7820124313564656 -2.0445369594928184 13.69849647749236 -13.877656948083274 0 0 0 -6.167956186287803 -31.973953164952913 6.25490207518517 -44.68061514234761 -77.38195726444702 -30.491352010854676 -114.10929835576223 59.64475962294665 -22.123518186690934 32.54458506760586 -42.930697152752685 -43.46503331195811 0 0 0 0 0 0 0 0 0 0 0 0 0 0 0 0 0 0 0 0 0 0 0 0 0 0 0 0 0 0 0 0 0 0 0 0 0 0 0 0 0 0 0 0 0 0.2575695655076929 -44.357966522058526 -7.741218100858773 -1.0979556947458742 -7.36928758997808 -17.519031481432528 0 0 0 0 0 0 0 0 0 22.459562854492027 -1.4920808860351544 -2.065000104796168 78.39361401189905 -82.68844365840995 -5.205797618933468 82.61792615072778 63.01187339852023 -32.70431657091024 -30.28763169321314 -23.302159129075534 17.622894960426837 0 0 0 0 0 0 0 0 0 0 0 0 0 0 0 0 0 0 0 0 0 0 0 0 0 0 0 0 0 0 0 0 0 0 0 0 0 0 0 0 0 0 0 0 0
